<svg width="100" height="100" viewBox="0 0 100 100" fill="none" xmlns="http://www.w3.org/2000/svg">
<g clip-path="url(#clip0_25_22)">
<mask id="mask0_25_22" style="mask-type:alpha" maskUnits="userSpaceOnUse" x="23" y="20" width="246" height="60">
<path d="M23 79.5024H268.208V20H23V79.5024Z" fill="white"/>
</mask>
<g mask="url(#mask0_25_22)">
<path fill-rule="evenodd" clip-rule="evenodd" d="M48.5103 77.0509L50.323 65.5563L50.44 64.9194C50.5273 64.3654 50.8109 63.8588 51.2382 63.4939C51.6655 63.1291 52.2103 62.9278 52.7721 62.9278H54.2115C56.6109 62.9278 58.8151 62.6715 60.7636 62.166C62.8424 61.6272 64.6915 60.7878 66.2588 59.6733C67.9206 58.4915 69.3164 56.9636 70.4079 55.1333C71.5594 53.2024 72.4048 50.8775 72.9212 48.2242C73.3776 45.8812 73.463 43.7836 73.1764 41.9891C72.8727 40.0933 72.1424 38.4757 71.0061 37.18C70.317 36.3951 69.4351 35.7151 68.3855 35.1588L68.3606 35.1454L68.36 35.1151C68.7267 32.7763 68.7127 30.8254 68.3182 29.146C67.9218 27.463 67.1194 25.9484 65.863 24.5169C63.26 21.5509 58.5255 20.0466 51.7915 20.0466H33.2976C32.6794 20.0466 32.0794 20.2678 31.6091 20.6697C31.1388 21.0715 30.8273 21.6297 30.7303 22.2406L23.0297 71.0727C22.9594 71.5181 23.0873 71.9709 23.3806 72.3127C23.6739 72.6563 24.1006 72.8533 24.5515 72.8533H36.0248L36.0145 72.9078L35.2267 77.9042C35.1661 78.2927 35.2776 78.6866 35.5327 78.9848C35.7879 79.2836 36.1594 79.4557 36.5521 79.4557H46.1751C46.7151 79.4557 47.2382 79.2624 47.6485 78.9115C48.0588 78.5606 48.3315 78.0739 48.4158 77.5412L48.5103 77.0509Z" fill="#27346A"/>
<path fill-rule="evenodd" clip-rule="evenodd" d="M41.9176 35.1788C42.0394 34.4048 42.5358 33.7715 43.2043 33.4509C43.5085 33.3055 43.8479 33.2242 44.2036 33.2242H58.7C60.4176 33.2242 62.0188 33.337 63.483 33.5727C63.9012 33.64 64.3079 33.7176 64.7036 33.8055C65.0994 33.8933 65.483 33.9909 65.8545 34.1C66.0406 34.1539 66.223 34.2109 66.403 34.2709C67.1218 34.5097 67.7909 34.7909 68.4067 35.117C69.1327 30.4885 68.4018 27.3388 65.8982 24.4861C63.1418 21.3455 58.1624 20 51.7915 20H33.2976C31.9958 20 30.8873 20.9473 30.6842 22.2333L22.9836 71.0655C22.8315 72.0291 23.5764 72.9 24.5515 72.9H35.9685L41.9176 35.1788Z" fill="#27346A"/>
</g>
<path fill-rule="evenodd" clip-rule="evenodd" d="M68.4067 35.1169C68.3515 35.4703 68.2903 35.8297 68.2176 36.2C65.7794 48.7218 57.4352 53.0509 46.7782 53.0509H41.3515C40.0497 53.0509 38.9503 53.9988 38.7473 55.2848L35.1806 77.8976C35.0479 78.74 35.6994 79.5024 36.5521 79.5024H46.1758C47.3146 79.5024 48.2842 78.6739 48.4618 77.5485L48.5564 77.0594L50.3691 65.5636L50.4861 64.9285C50.6636 63.803 51.6333 62.9745 52.7721 62.9745H54.2115C63.5345 62.9745 70.8345 59.1866 72.9679 48.2327C73.8588 43.6557 73.3982 39.8351 71.0412 37.1491C70.3285 36.3369 69.4412 35.6648 68.4067 35.1169Z" fill="#2790C3"/>
<path fill-rule="evenodd" clip-rule="evenodd" d="M65.8546 34.1C65.483 33.9909 65.0994 33.8933 64.7036 33.8055C64.3079 33.7176 63.9012 33.64 63.483 33.5727C62.0188 33.337 60.4176 33.2242 58.7 33.2242H44.2036C43.8479 33.2242 43.5085 33.3055 43.2043 33.4509C42.5358 33.7715 42.0394 34.4048 41.9176 35.1788L38.8364 54.7145L38.7473 55.2849C38.9503 53.9988 40.0497 53.0509 41.3515 53.0509H46.7782C57.4352 53.0509 65.7794 48.7218 68.2176 36.2C68.2903 35.8297 68.3515 35.4703 68.4067 35.117C67.7909 34.7909 67.1218 34.5097 66.403 34.2709C66.223 34.2109 66.0406 34.1539 65.8546 34.1Z" fill="#1F264F"/>
</g>
<defs>
<clipPath id="clip0_25_22">
<rect width="100" height="100" fill="white"/>
</clipPath>
</defs>
</svg>
